# xmcd
#
# Track frame offsets:
#	150
#	10541
#	23879
#	35399
#	43580
#	54067
#	62360
#	74472
#	84842
#	95277
#	104742
#	115651
#	128713
#	140305
#	153510
#	170698
#
# Disc length: 2409 seconds
#
# Revision: 0
# Processed by: cddbd v1.5.1PL0 Copyright (c) Steve Scherf et al.
# Submitted via: MusicManager 7.2.0.0 
#
DISCID=c0096710
DTITLE=Dropkick Murphys - Do or Die
DYEAR=2001
DGENRE=blues
TTITLE0=3rd Man In
TTITLE1=Barroom Hero
TTITLE2=Boys On The Docks
TTITLE3=Cadence to Arms
TTITLE4=Caught In A Jar
TTITLE5=Do or Die
TTITLE6=Far Away Coast
TTITLE7=Fightstarter Karaoke
TTITLE8=Get Up
TTITLE9=Memories Remain
TTITLE10=Never Alone
TTITLE11=Noble
TTITLE12=Never Alone
TTITLE13=Road To The Righteous
TTITLE14=Skinhead On The M.B.T.A.
TTITLE15=Tenant Enemy #1
EXTD=
EXTT0=
EXTT1=
EXTT2=
EXTT3=
EXTT4=
EXTT5=
EXTT6=
EXTT7=
EXTT8=
EXTT9=
EXTT10=
EXTT11=
EXTT12=
EXTT13=
EXTT14=
EXTT15=
PLAYORDER=
